<?xml version="1.0" encoding="UTF-8" standalone="no"?>
<!-- Created with Inkscape (http://www.inkscape.org/) -->

<svg
   width="158.89481"
   height="47.839268"
   viewBox="0 0 158.89481 47.839268"
   version="1.1"
   id="svg1"
   xmlns="http://www.w3.org/2000/svg"
   xmlns:svg="http://www.w3.org/2000/svg">
  <defs
     id="defs1" />
  <g
     id="layer1"
     transform="matrix(1.3384968,0,0,1.3384968,-40.923305,-91.749849)">
    <g
       id="g4"
       transform="translate(-0.99219026,-3.5825598)">
      <path
         d="m 40.170591,107.87053 q -3.829396,0 -6.240498,-1.93834 -2.363825,-1.93834 -2.363825,-5.15314 0,-3.167525 2.03289,-5.105862 2.080166,-1.985613 5.767733,-2.742037 l 9.644406,-2.032889 V 95.2477 l -7.186028,1.74923 q -1.560125,0.378212 -2.411102,1.08736 -0.8037,0.661871 -0.8037,1.93834 0,1.32374 0.94553,2.03289 0.94553,0.70914 2.363825,0.70914 1.512848,0 2.552931,-0.61459 1.087359,-0.6146 1.654677,-1.70196 0.567318,-1.087355 0.567318,-2.50565 v -6.760539 q 0,-1.89106 -0.94553,-2.83659 -0.94553,-0.94553 -2.742037,-0.94553 -1.701954,0 -2.742037,0.898253 -1.040083,0.850977 -1.371018,2.458378 l -6.76054,-1.323742 q 0.756424,-3.498461 3.687567,-5.436797 2.97842,-1.938337 7.422411,-1.938337 5.342244,0 7.895175,2.552931 2.552931,2.552931 2.552931,7.091475 v 10.968148 l 1.749231,4.6331 h -7.138752 l -0.94553,-2.74204 v 0 q -1.134636,1.6074 -2.931143,2.45838 -1.796507,0.85098 -4.254885,0.85098 z m 33.897254,-0.56732 V 93.072981 q 0,-2.505655 -1.134636,-3.734844 -1.08736,-1.229189 -3.025696,-1.229189 -2.127443,0 -3.403908,1.418295 -1.229189,1.371019 -1.229189,3.829397 v 13.94657 H 58.277494 V 82.624874 h 6.571433 v 2.647484 0 q 1.08736,-1.560124 2.83659,-2.363825 1.749231,-0.850977 4.160332,-0.850977 2.694761,0 4.774927,1.040083 2.080166,1.040083 3.262078,3.262079 1.181913,2.221995 1.181913,5.720456 v 15.223036 z m 46.851075,-6.52416 V 90.709156 h 1.70195 l 8.17884,-8.084282 h 8.74615 l -10.63721,10.306277 -0.8037,0.803701 z m -5.29497,6.52416 V 73.973274 h 6.99692 v 33.329936 z m 16.31039,0 -7.28058,-13.993847 4.11306,-6.051392 11.2518,20.045239 z m 10.73179,0 V 82.624874 h 6.99693 v 24.678336 z m 3.49846,-27.136714 q -1.74923,0 -2.93114,-1.181913 -1.13463,-1.181912 -1.13463,-2.83659 0,-1.701954 1.13463,-2.83659 1.18191,-1.181912 2.93114,-1.181912 1.79651,0 2.93115,1.181912 1.18191,1.134636 1.18191,2.83659 0,1.654678 -1.18191,2.83659 -1.13464,1.181913 -2.93115,1.181913 z"
         id="text2"
         style="font-weight:bold;font-size:47.2765px;font-family:'TikTok Sans';-inkscape-font-specification:'TikTok Sans Bold';stroke-width:2.60127"
         aria-label="an   ki" />
      <rect
         style="fill:#000000;stroke:#ffffff;stroke-width:0;stroke-linecap:butt;stroke-dasharray:none;stroke-opacity:1"
         id="rect4"
         width="25.354109"
         height="24.705933"
         x="85.533318"
         y="82.683342"
         ry="5.4717827" />
      <path
         style="fill:#ffffff;fill-opacity:1;stroke:#ffffff;stroke-width:0.140582;stroke-linecap:round;stroke-linejoin:round;stroke-dasharray:none;stroke-opacity:1;paint-order:normal"
         d="M 94.358598,101.58746 104.33618,94.865297 94.351069,88.87199"
         id="path4" />
    </g>
  </g>
</svg>
